<svg xmlns="http://www.w3.org/2000/svg" viewBox="0 0 64 64">
  <rect width="64" height="64" rx="12" fill="#111111"/>
  <g transform="translate(10,8) scale(0.07)">
    <g transform="scale(1,-1) translate(0,-660)">
      <path d="M22 0V10L42 17Q62 23 68.5 35.0Q75 47 75 67V591Q75 611 68.0 623.0Q61 635 41 642L22 650V660H265Q414 660 480.5 605.5Q547 551 547 462Q547 405 519.5 357.5Q492 310 429.0 282.0Q366 254 259 254H225V70Q225 31 264 19L294 10V0ZM225 274H263Q312 274 343.0 290.0Q374 306 389.0 346.0Q404 386 404 457Q404 529 387.5 569.0Q371 609 339.0 624.5Q307 640 259 640H225Z" fill="#f2ece4"/>
    </g>
  </g>
  <circle cx="52" cy="52" r="6" fill="#d8572a"/>
</svg>
